<?xml version="1.0" encoding="UTF-8" standalone="no"?>
<!-- Created with Inkscape (http://www.inkscape.org/) -->

<svg
   width="240mm"
   height="120mm"
   viewBox="0 0 240 120"
   version="1.1"
   id="svg8"
   inkscape:version="1.4 (e7c3feb100, 2024-10-09)"
   sodipodi:docname="figura_1.svg"
   xmlns:inkscape="http://www.inkscape.org/namespaces/inkscape"
   xmlns:sodipodi="http://sodipodi.sourceforge.net/DTD/sodipodi-0.dtd"
   xmlns="http://www.w3.org/2000/svg"
   xmlns:svg="http://www.w3.org/2000/svg"
   xmlns:rdf="http://www.w3.org/1999/02/22-rdf-syntax-ns#"
   xmlns:cc="http://creativecommons.org/ns#"
   xmlns:dc="http://purl.org/dc/elements/1.1/">
  <defs
     id="defs2" />
  <sodipodi:namedview
     id="base"
     pagecolor="#ffffff"
     bordercolor="#666666"
     borderopacity="1.0"
     inkscape:pageopacity="0.0"
     inkscape:pageshadow="2"
     inkscape:zoom="0.99437388"
     inkscape:cx="284.6012"
     inkscape:cy="183.53258"
     inkscape:document-units="mm"
     inkscape:current-layer="layer1"
     showgrid="false"
     showborder="true"
     width="200mm"
     showguides="true"
     inkscape:guide-bbox="true"
     inkscape:window-width="1239"
     inkscape:window-height="994"
     inkscape:window-x="0"
     inkscape:window-y="0"
     inkscape:window-maximized="1"
     inkscape:showpageshadow="2"
     inkscape:pagecheckerboard="0"
     inkscape:deskcolor="#d1d1d1">
    <inkscape:grid
       type="xygrid"
       id="grid815"
       units="mm"
       spacingx="10"
       spacingy="10"
       empspacing="4"
       dotted="false"
       originx="0"
       originy="0" />
  </sodipodi:namedview>
  <metadata
     id="metadata5">
    <rdf:RDF>
      <cc:Work
         rdf:about="">
        <dc:format>image/svg+xml</dc:format>
        <dc:type
           rdf:resource="http://purl.org/dc/dcmitype/StillImage" />
        <dc:title />
      </cc:Work>
    </rdf:RDF>
  </metadata>
  <g
     inkscape:label="Layer 1"
     inkscape:groupmode="layer"
     id="layer1"
     transform="translate(0,-177)">
    <path
       style="fill:#000000;stroke-width:0.264583"
       d="m 51.087424,227.55526 c -0.215648,0.16174 -2.211797,1.28922 -1.330402,2.12864 7.428918,7.07517 24.903242,11.61118 34.058281,13.03794 7.918304,1.23402 15.936526,1.90299 23.947227,2.12864 3.36706,0.0949 26.28984,0.38844 24.21331,-9.57889 -1.80666,-8.67197 -20.3169,-17.40807 -23.41507,-18.8917 -9.774975,-4.68098 -33.396313,-12.68042 -43.63717,-3.99121 -4.8319,4.0998 4.355878,13.64178 5.055526,14.36834 6.382253,6.62772 34.883594,24.95619 38.847724,27.67235 1.46333,1.00265 3.00297,1.93865 4.25729,3.19297 0.9045,0.9045 2.55437,1.98673 2.12864,3.19296 -0.43883,1.24336 -2.41221,1.20884 -3.72512,1.3304 -3.53263,0.3271 -7.13287,0.51371 -10.64322,0 -6.841475,-1.00119 -20.495605,-4.15642 -14.102253,-14.63441 2.091671,-3.42802 4.956984,-6.48014 8.248491,-8.78065 9.045002,-6.32178 19.540412,-9.73512 29.800992,-13.30402 1.66912,-0.58056 3.38754,-1.01268 5.05553,-1.59648 0.11839,-0.0414 0.37827,-0.20999 0.26608,-0.26608 -0.23799,-0.119 -0.54581,-0.0842 -0.79824,0 -0.30338,0.10112 -0.63958,0.25451 -0.79824,0.53216 -0.29146,0.51006 -0.50501,4.76229 0.26608,3.9912 0.22641,-0.22641 0.0244,-1.6697 0.26608,-2.39472"
       id="path1" />
  </g>
</svg>
