<?xml version="1.0" encoding="UTF-8" standalone="no"?>
<!-- Created with Inkscape (http://www.inkscape.org/) -->

<svg
   width="240mm"
   height="120mm"
   viewBox="0 0 240 120"
   version="1.1"
   id="svg8"
   inkscape:version="1.4 (e7c3feb100, 2024-10-09)"
   sodipodi:docname="figura2.svg"
   xmlns:inkscape="http://www.inkscape.org/namespaces/inkscape"
   xmlns:sodipodi="http://sodipodi.sourceforge.net/DTD/sodipodi-0.dtd"
   xmlns="http://www.w3.org/2000/svg"
   xmlns:svg="http://www.w3.org/2000/svg"
   xmlns:rdf="http://www.w3.org/1999/02/22-rdf-syntax-ns#"
   xmlns:cc="http://creativecommons.org/ns#"
   xmlns:dc="http://purl.org/dc/elements/1.1/">
  <defs
     id="defs2" />
  <sodipodi:namedview
     id="base"
     pagecolor="#ffffff"
     bordercolor="#666666"
     borderopacity="1.0"
     inkscape:pageopacity="0.0"
     inkscape:pageshadow="2"
     inkscape:zoom="0.99437388"
     inkscape:cx="284.6012"
     inkscape:cy="182.52692"
     inkscape:document-units="mm"
     inkscape:current-layer="layer1"
     showgrid="false"
     showborder="true"
     width="200mm"
     showguides="true"
     inkscape:guide-bbox="true"
     inkscape:window-width="931"
     inkscape:window-height="994"
     inkscape:window-x="0"
     inkscape:window-y="0"
     inkscape:window-maximized="1"
     inkscape:showpageshadow="2"
     inkscape:pagecheckerboard="0"
     inkscape:deskcolor="#d1d1d1">
    <inkscape:grid
       type="xygrid"
       id="grid815"
       units="mm"
       spacingx="10"
       spacingy="10"
       empspacing="4"
       dotted="false"
       originx="0"
       originy="0" />
  </sodipodi:namedview>
  <metadata
     id="metadata5">
    <rdf:RDF>
      <cc:Work
         rdf:about="">
        <dc:format>image/svg+xml</dc:format>
        <dc:type
           rdf:resource="http://purl.org/dc/dcmitype/StillImage" />
        <dc:title />
      </cc:Work>
    </rdf:RDF>
  </metadata>
  <g
     inkscape:label="Layer 1"
     inkscape:groupmode="layer"
     id="layer1"
     transform="translate(0,-177)">
    <path
       style="fill:#000000;stroke-width:0.264583"
       d="m 80.090178,208.1314 c -0.975627,1.59648 -2.31486,3.02138 -2.926881,4.78944 -3.253632,9.39938 -2.154928,20.88042 -0.266081,30.06708 1.761619,8.56788 19.897365,21.5712 22.350748,22.88291 20.912326,11.18085 42.224216,15.53084 65.189676,17.82738 0.0883,0.009 -0.17752,-0.005 -0.26608,0 -3.10454,0.17248 -6.20512,0.4311 -9.31281,0.53216 -7.80291,0.25376 -15.60803,0.53216 -23.41507,0.53216 -29.30911,0 -30.00638,0.83493 -56.941187,-5.3216 -3.992332,-0.91254 -8.222292,-1.57466 -11.707534,-3.72513 -1.154642,-0.71244 -1.469771,-2.8123 -0.798243,-3.9912 3.511934,-6.1654 7.981289,-11.795 12.771855,-17.02914 8.824098,-9.64115 23.481371,-20.3063 34.058279,-27.67236 0.02,-0.0139 13.31716,-6.87773 14.9005,-11.17537 0.21681,-0.58849 -0.76294,-1.06336 -1.3304,-1.3304 -2.0648,-0.97168 -5.99146,-1.10933 -7.98241,-0.79824 -1.30271,0.20355 -2.67031,0.53928 -3.72512,1.3304 -0.51656,0.38742 -0.72896,1.24758 -0.53216,1.86256 2.0549,6.42157 11.86557,11.77063 7.45024,19.42386 -0.96629,1.67491 -3.86704,2.261 -5.58768,2.12865 -1.40809,-0.10832 -0.67084,-1.72908 -0.53216,-2.39473 1.26163,-6.05581 0.68666,-2.90236 2.39472,-8.51457 0.21295,-0.69969 0.3735,-1.41467 0.53216,-2.12864 0.0192,-0.0866 0.0627,-0.3288 0,-0.26608 -0.37007,0.37007 -0.96033,1.22642 -1.3304,1.59648"
       id="path1" />
  </g>
</svg>
